<?xml version="1.0" standalone="no"?><!DOCTYPE svg PUBLIC "-//W3C//DTD SVG 1.1//EN" "http://www.w3.org/Graphics/SVG/1.1/DTD/svg11.dtd"><svg t="1656774460523" class="icon" viewBox="0 0 1024 1024" version="1.1" xmlns="http://www.w3.org/2000/svg" p-id="5914" xmlns:xlink="http://www.w3.org/1999/xlink" width="200" height="200"><defs><style type="text/css">@font-face { font-family: feedback-iconfont; src: url("//at.alicdn.com/t/font_1031158_u69w8yhxdu.woff2?t=1630033759944") format("woff2"), url("//at.alicdn.com/t/font_1031158_u69w8yhxdu.woff?t=1630033759944") format("woff"), url("//at.alicdn.com/t/font_1031158_u69w8yhxdu.ttf?t=1630033759944") format("truetype"); }
</style></defs><path d="M504.832 876.544c-18.432 0-33.28-14.848-33.28-33.28v-74.752c0-18.432 14.848-33.28 33.28-33.28s33.28 14.848 33.28 33.28v74.752c0 18.432-14.848 33.28-33.28 33.28z" fill="" p-id="5915"></path><path d="M641.536 879.104h-271.36c-18.432 0-33.28-14.848-33.28-33.28s14.848-33.28 33.28-33.28h270.848c18.432 0 33.28 14.848 33.28 33.28s-14.848 33.28-32.768 33.28zM183.296 804.864c-8.704 0-16.896-3.072-23.552-9.728-12.8-12.8-12.8-34.304 0-47.104L758.272 149.504c12.8-12.8 34.304-12.8 47.104 0 12.8 12.8 12.8 34.304 0 47.104L206.848 795.136c-6.144 6.144-14.848 9.728-23.552 9.728zM774.144 444.416c-18.432 0-33.28 14.848-33.28 33.28 0 129.536-105.472 235.52-235.52 235.52-36.352 0-70.656-8.192-100.864-23.04l-49.152 49.152c44.544 25.6 95.744 40.448 150.528 40.448 166.4 0 302.08-135.168 302.08-302.08 0-18.432-15.36-33.28-33.792-33.28z" fill="" p-id="5916"></path><path d="M301.056 699.392l47.104-47.104c-47.616-43.008-77.824-105.472-77.824-174.592 0-18.432-14.848-33.28-33.28-33.28s-33.28 14.848-33.28 33.28c0 87.552 37.888 166.912 97.28 221.696z" fill="" p-id="5917"></path><path d="M572.928 521.728c-5.632 27.648-27.648 49.664-55.296 55.296l-59.904 59.904c14.336 5.12 29.696 7.68 46.08 7.68 75.776 0 137.728-61.44 137.728-137.728V454.144l-68.608 67.584zM448.512 552.448c-9.728-12.288-15.872-27.648-15.872-44.544V270.848c0-38.912 31.744-71.168 71.168-71.168 38.912 0 71.168 31.744 71.168 71.168v155.648l66.56-66.56V270.848c0-75.776-61.44-137.728-137.728-137.728-75.776 0-137.728 61.44-137.728 137.728v237.056c0 35.328 13.312 67.584 35.328 91.648l47.104-47.104z" fill="" p-id="5918"></path></svg>