<?xml version="1.0" standalone="no"?><!DOCTYPE svg PUBLIC "-//W3C//DTD SVG 1.1//EN" "http://www.w3.org/Graphics/SVG/1.1/DTD/svg11.dtd"><svg t="1656774476088" class="icon" viewBox="0 0 1024 1024" version="1.1" xmlns="http://www.w3.org/2000/svg" p-id="6195" xmlns:xlink="http://www.w3.org/1999/xlink" width="200" height="200"><defs><style type="text/css">@font-face { font-family: feedback-iconfont; src: url("//at.alicdn.com/t/font_1031158_u69w8yhxdu.woff2?t=1630033759944") format("woff2"), url("//at.alicdn.com/t/font_1031158_u69w8yhxdu.woff?t=1630033759944") format("woff"), url("//at.alicdn.com/t/font_1031158_u69w8yhxdu.ttf?t=1630033759944") format("truetype"); }
</style></defs><path d="M836.266667 315.733333c-21.333333 4.266667-38.4 25.6-34.133334 51.2 8.533333 17.066667 8.533333 38.4 8.533334 59.733334 0 166.4-132.266667 298.666667-298.666667 298.666666-21.333333 0-38.4 0-59.733333-4.266666-21.333333-4.266667-46.933333 8.533333-51.2 34.133333-4.266667 21.333333 8.533333 46.933333 34.133333 51.2 12.8 4.266667 21.333333 4.266667 34.133333 4.266667v85.333333H320c-25.6 0-42.666667 17.066667-42.666667 42.666667s17.066667 42.666667 42.666667 42.666666h384c25.6 0 42.666667-17.066667 42.666667-42.666666s-17.066667-42.666667-42.666667-42.666667H554.666667v-89.6c192-21.333333 341.333333-183.466667 341.333333-379.733333 0-25.6-4.266667-51.2-8.533333-76.8-4.266667-25.6-25.6-38.4-51.2-34.133334zM230.4 661.333333c8.533333 0 17.066667-4.266667 25.6-8.533333 21.333333-12.8 25.6-38.4 12.8-59.733333C230.4 546.133333 213.333333 486.4 213.333333 426.666667c0-166.4 132.266667-298.666667 298.666667-298.666667 59.733333 0 115.2 17.066667 166.4 51.2 21.333333 12.8 46.933333 8.533333 59.733333-12.8 12.8-21.333333 8.533333-46.933333-12.8-59.733333-64-42.666667-136.533333-64-213.333333-64-213.333333 0-384 170.666667-384 384 0 76.8 21.333333 149.333333 64 213.333333 8.533333 12.8 21.333333 21.333333 38.4 21.333333z" p-id="6196"></path><path d="M529.066667 341.333333c21.333333 4.266667 46.933333-8.533333 51.2-34.133333 4.266667-21.333333-8.533333-46.933333-34.133334-51.2H512c-93.866667 0-170.666667 76.8-170.666667 170.666667 0 12.8 0 25.6 4.266667 38.4 4.266667 21.333333 21.333333 34.133333 42.666667 34.133333h8.533333c21.333333-4.266667 38.4-29.866667 34.133333-51.2 0-8.533333-4.266667-12.8-4.266666-21.333333 0-51.2 51.2-93.866667 102.4-85.333334zM968.533333 55.466667c-17.066667-17.066667-42.666667-17.066667-59.733333 0l-853.333333 853.333333c-17.066667 17.066667-17.066667 42.666667 0 59.733333 8.533333 8.533333 17.066667 12.8 29.866666 12.8s21.333333-4.266667 29.866667-12.8l853.333333-853.333333c17.066667-17.066667 17.066667-42.666667 0-59.733333z" p-id="6197"></path></svg>