<?xml version="1.0" standalone="no"?><!DOCTYPE svg PUBLIC "-//W3C//DTD SVG 1.1//EN" "http://www.w3.org/Graphics/SVG/1.1/DTD/svg11.dtd"><svg t="1656774470392" class="icon" viewBox="0 0 1024 1024" version="1.1" xmlns="http://www.w3.org/2000/svg" p-id="6056" xmlns:xlink="http://www.w3.org/1999/xlink" width="200" height="200"><defs><style type="text/css">@font-face { font-family: feedback-iconfont; src: url("//at.alicdn.com/t/font_1031158_u69w8yhxdu.woff2?t=1630033759944") format("woff2"), url("//at.alicdn.com/t/font_1031158_u69w8yhxdu.woff?t=1630033759944") format("woff"), url("//at.alicdn.com/t/font_1031158_u69w8yhxdu.ttf?t=1630033759944") format("truetype"); }
</style></defs><path d="M512 128a128 128 0 0 0-128 128v256a128 128 0 0 0 256 0V256a128 128 0 0 0-128-128z m0-64a192 192 0 0 1 192 192v256a192 192 0 1 1-384 0V256a192 192 0 0 1 192-192z m-32 832v-64A288.64 288.64 0 0 1 192 544V512a32 32 0 1 1 64 0v32A223.36 223.36 0 0 0 480 768h64A223.36 223.36 0 0 0 768 544V512a32 32 0 1 1 64 0v32A288.64 288.64 0 0 1 544 832v64h64a32 32 0 1 1 0 64h-192a32 32 0 1 1 0-64z" p-id="6057"></path></svg>